Patient4_TMGait_0pt7_01_left_45_GRF.mot
version=1
nRows=26
nColumns=19
inDegrees=no
endheader
time	F1x	F1y	F1z	M1x	M1y	M1z	F2x	F2y	F2z	M2x	M2y	M2z	EC1x	EC1y	EC1z	EC2x	EC2y	EC2z
52.19	5.5209	0.51177	-0.47584	-0.81726	2.8573	3.2388	-39.413	751.6287	-96.8633	242.2341	128.725	885.13	-0.0592	0.0182	-0.0073	-0.0462	0.0165	0.9585
52.2016	3.4677	1.5078	-0.20148	-0.99367	1.7549	3.6105	-39.0122	744.4555	-94.6019	240.3929	125.732	875.7138	-0.0592	0.0182	-0.0073	-0.0462	0.0165	0.9585
52.2133	1.7813	2.3877	0.0051093	-1.1422	0.84465	3.9832	-38.1234	736.9168	-92.3362	238.4118	122.4435	864.9142	-0.0592	0.0182	-0.0073	-0.0462	0.0165	0.9585
52.2249	0.53487	3.1096	0.14578	-1.2639	0.16819	4.3424	-36.7004	729.3021	-90.1153	236.3701	118.9321	853.04	-0.0592	0.0182	-0.0073	-0.0462	0.0165	0.9585
52.2366	-0.29986	3.6775	0.23801	-1.3645	-0.29594	4.6851	-34.7246	721.8243	-87.9548	234.3464	115.2391	840.4076	-0.0592	0.0182	-0.0073	-0.0462	0.0165	0.9585
52.2482	-0.80052	4.0928	0.28792	-1.4455	-0.58013	4.9805	-32.2118	714.7884	-85.8144	232.4611	111.3557	827.4712	-0.0592	0.0182	-0.0073	-0.0462	0.0165	0.9585
52.2599	-1.0644	4.3716	0.31914	-1.5072	-0.7485	5.2065	-29.208	708.6901	-83.64	230.9012	107.2655	814.9102	-0.0592	0.0182	-0.0073	-0.0462	0.0165	0.9585
52.2715	-1.1816	4.4991	0.33831	-1.5382	-0.84596	5.3068	-25.8012	704.3051	-81.372	229.9411	102.9562	803.7198	-0.0592	0.0182	-0.0073	-0.0462	0.0165	0.9585
52.2831	-1.2253	4.4393	0.35855	-1.5195	-0.91726	5.2288	-22.0991	702.5794	-79.0348	229.8979	98.5034	795.0661	-0.0592	0.0182	-0.0073	-0.0462	0.0165	0.9585
52.2948	-1.2555	4.1405	0.39123	-1.4267	-0.99377	4.8896	-18.225	704.354	-76.7018	231.0368	94.038	789.9861	-0.0592	0.0182	-0.0073	-0.0462	0.0165	0.9585
52.3064	-1.3092	3.5254	0.43563	-1.2236	-1.0854	4.1829	-14.2736	710.027	-74.542	233.4604	89.7721	789.0178	-0.0592	0.0182	-0.0073	-0.0462	0.0165	0.9585
52.3181	-1.3803	2.5014	0.50082	-0.86704	-1.1945	2.9738	-10.3116	719.3854	-72.7393	237.0621	85.9129	792.0138	-0.0592	0.0182	-0.0073	-0.0462	0.0165	0.9585
52.3297	-1.4559	0.97181	0.55788	-0.31411	-1.2836	1.132	-6.3435	731.6104	-71.4796	241.5353	82.64	798.1535	-0.0592	0.0182	-0.0073	-0.0462	0.0165	0.9585
52.3414	-1.477	-1.1218	0.60391	0.46284	-1.3232	-1.4239	-2.3362	745.4639	-70.8501	246.4422	80.0157	806.1579	-0.0592	0.0182	-0.0073	-0.0462	0.0165	0.9585
52.353	-1.3694	-3.7359	0.59033	1.4485	-1.2356	-4.6392	1.752	759.4674	-70.8326	251.2808	77.9882	814.4884	-0.0592	0.0182	-0.0073	-0.0462	0.0165	0.9585
52.3646	-1.0155	-6.6798	0.50077	2.5657	-0.95658	-8.274	5.9648	772.1142	-71.3141	255.5498	76.4088	821.5905	-0.0592	0.0182	-0.0073	-0.0462	0.0165	0.9585
52.3763	-0.27514	-9.4679	0.28706	3.6251	-0.38002	-11.7344	10.3222	781.9681	-72.126	258.7806	75.0831	825.9848	-0.0592	0.0182	-0.0073	-0.0462	0.0165	0.9585
52.3879	1.0219	-11.2693	-0.076303	4.3027	0.58921	-14.0033	14.7863	787.7769	-73.1084	260.5684	73.85	826.394	-0.0592	0.0182	-0.0073	-0.0462	0.0165	0.9585
52.3996	3.0226	-10.7663	-0.62839	4.0894	2.0544	-13.4684	19.2936	788.5765	-74.1104	260.6044	72.578	821.8499	-0.0592	0.0182	-0.0073	-0.0462	0.0165	0.9585
52.4112	5.8302	-6.1373	-1.3817	2.2822	4.0684	-7.9099	23.7251	783.7633	-74.9998	258.7051	71.176	811.7676	-0.0592	0.0182	-0.0073	-0.0462	0.0165	0.9585
52.4229	9.3904	4.9498	-2.3166	-2.013	6.587	5.5144	27.9823	773.1694	-75.6524	254.8371	69.5627	795.997	-0.0592	0.0182	-0.0073	-0.0462	0.0165	0.9585
52.4345	13.4295	25.1385	-3.3512	-9.8059	9.3994	30.0324	31.9623	756.983	-75.9261	249.0943	67.6464	774.7622	-0.0592	0.0182	-0.0073	-0.0462	0.0165	0.9585
52.4461	17.2739	56.9671	-4.3067	-22.0582	12.0239	68.7714	35.5886	735.5897	-75.6654	241.6446	65.3197	748.5003	-0.0592	0.0182	-0.0073	-0.0462	0.0165	0.9585
52.4578	19.7536	102.1079	-4.8737	-39.3938	13.6163	123.8074	38.764	709.4316	-74.6888	232.6776	62.4619	717.7377	-0.0592	0.0182	-0.0073	-0.0462	0.0165	0.9585
52.4694	19.1083	160.3985	-4.6063	-61.7252	12.9695	195.0083	41.3863	678.8437	-72.7913	222.346	58.9393	682.8992	-0.0592	0.0182	-0.0073	-0.0462	0.0165	0.9585
52.4811	13.8921	229.1815	-3.0112	-87.9936	8.9188	279.2007	43.3277	644.0711	-69.7652	210.7621	54.626	644.3325	-0.0592	0.0182	-0.0073	-0.0462	0.0165	0.9585
